#!OML:ASF E:\emotionWalksFemale\Project 1\Capture day 1\Session 1\Female1.ASF
:FULLY-SPECIFIED
:DEGREES
2855
root 20.1217 15.7043 1.43707 -861.137 -88.1594 -579.534
lowerback 5.26731 -1.19078 1.24173
upperback -5.67353 -1.43718 1.73452
thorax -8.93118 -0.75424 1.33131
lowerneck -12.888 -2.39253 -4.8321
upperneck 30.7886 -3.98962 2.48149
head 12.4671 -2.3856 1.12867
rclavicle -1.55052e-014 1.11319e-014
rhumerus 31.8498 10.4378 -43.2729
rradius 27.3206
rwrist 17.7844
rhand 1.24304 -43.8196
rfingers 7.12502
rthumb 26.7804 -431.944
lclavicle -1.55052e-014 1.11319e-014
lhumerus 28.9663 -14.2015 50.9914
lradius 28.6017
lwrist -28.4578
lhand -7.09078 -46.1046
lfingers 7.12502
lthumb 18.7835 -16.9915
rfemur -8.19006 29.0089 20.7382
rtibia 14.3035
rfoot -32.2872 -37.7227
rtoes 34.1471
lfemur 1.54197 1.52612 -15.0303
ltibia 51.281
lfoot -2.7678 3.9561
ltoes 6.54707
2856
root 20.0328 15.6882 1.40047 -854.89 -88.4128 -585.787
lowerback 5.26833 -1.16944 1.40815
upperback -5.70417 -1.38659 1.836
thorax -8.96804 -0.737496 1.34018
lowerneck -12.8146 -2.37055 -4.87808
upperneck 30.8326 -3.93298 2.42018
head 12.467 -2.3752 1.1225
rclavicle -3.20043e-014 2.46493e-014
rhumerus 31.7413 11.1281 -42.3701
rradius 27.6007
rwrist 16.7682
rhand 1.38956 -44.1088
rfingers 7.12502
rthumb 26.9206 -432.211
lclavicle -3.20043e-014 2.46493e-014
lhumerus 28.814 -14.0347 51.2349
lradius 28.6442
lwrist -28.7551
lhand -7.25784 -46.2531
lfingers 7.12502
lthumb 18.6228 -17.1246
rfemur -7.45114 29.8387 21.4794
rtibia 14.2997
rfoot -30.8493 -40.2509
rtoes 29.8873
lfemur 0.439291 1.77803 -14.7863
ltibia 51.8618
lfoot -3.90161 4.43611
ltoes -2.88132
2857
root 19.937 15.6962 1.36644 -846.28 -88.4582 -594.49
lowerback 5.33513 -1.13731 1.47816
upperback -5.70964 -1.32927 1.91542
thorax -9.01432 -0.711223 1.37992
lowerneck -12.845 -2.37675 -4.96327
upperneck 31.0084 -3.92005 2.37767
head 12.5463 -2.38865 1.12182
rclavicle -2.18663e-014 -7.95139e-016
rhumerus 32.2375 10.1874 -44.1276
rradius 26.4659
rwrist 18.9679
rhand 1.26806 -43.6798
rfingers 7.12502
rthumb 26.8044 -431.8
lclavicle -2.18663e-014 -7.95139e-016
lhumerus 28.6283 -13.8572 51.5192
lradius 28.7065
lwrist -28.9032
lhand -7.14045 -46.4497
lfingers 7.12502
lthumb 18.7357 -17.332
rfemur -6.86845 31.6751 21.6594
rtibia 14.4036
rfoot -34.4739 -40.171
rtoes 35.1985
lfemur -0.385185 1.83509 -14.8132
ltibia 52.0872
lfoot -5.32983 5.22695
ltoes -4.00097
2858
root 19.8409 15.699 1.3364 -835.573 -88.4336 -605.285
lowerback 5.36137 -1.0619 1.54062
upperback -5.69812 -1.21746 1.96428
thorax -9.01899 -0.658871 1.38258
lowerneck -12.9827 -2.39618 -4.99408
upperneck 31.2123 -3.92719 2.32198
head 12.6596 -2.40383 1.10244
rclavicle 1.59028e-015 -1.43125e-014
rhumerus 31.9096 11.3999 -42.1046
rradius 27.3086
rwrist 16.7488
rhand 1.50937 -43.3699
rfingers 7.12502
rthumb 27.0353 -431.455
lclavicle 1.59028e-015 -1.43125e-014
lhumerus 28.6761 -13.6779 51.9722
lradius 28.6023
lwrist -28.9889
lhand -6.79659 -46.5401
lfingers 7.12502
lthumb 19.0664 -17.4546
rfemur -6.38251 30.1843 21.9892
rtibia 14.6799
rfoot -31.7408 -40.3027
rtoes 31.6711
lfemur -1.21349 1.83887 -14.9471
ltibia 52.1716
lfoot -6.69432 6.40844
ltoes -6.05687
2859
root 19.7515 15.6996 1.30729 -824.632 -88.4488 -616.186
lowerback 5.33384 -0.984234 1.75685
upperback -5.72808 -1.09287 1.97942
thorax -9.04127 -0.612478 1.26145
lowerneck -13.0322 -2.31816 -4.68915
upperneck 31.2922 -3.8476 2.18402
head 12.6885 -2.34919 1.00818
rclavicle 1.76918e-014 7.15625e-015
rhumerus 31.5979 11.6433 -41.3179
rradius 27.6759
rwrist 15.8981
rhand 1.75528 -43.1368
rfingers 7.12502
rthumb 27.2705 -431.185
lclavicle 1.76918e-014 7.15625e-015
lhumerus 28.7843 -13.0746 52.7152
lradius 28.3048
lwrist -29.8092
lhand -6.60544 -46.5183
lfingers 7.12502
lthumb 19.2503 -17.451
rfemur -6.19992 29.3067 22.2598
rtibia 15.1533
rfoot -30.0968 -40.3577
rtoes 29.3876
lfemur -2.20681 1.84207 -14.9627
ltibia 52.0395
lfoot -7.98029 7.58696
ltoes -7.44819
2860
root 19.6649 15.7022 1.27751 -815.457 -88.3921 -625.317
lowerback 5.37008 -0.9647 1.99806
upperback -5.78263 -1.04366 1.96692
thorax -9.12838 -0.605736 1.10921
lowerneck -12.83 -2.28579 -4.54897
upperneck 31.1801 -3.81561 2.1044
head 12.5925 -2.32893 0.961487
rclavicle 7.95139e-016 1.27222e-014
rhumerus 31.4583 9.80915 -44.0744
rradius 26.7831
rwrist 19.0699
rhand 1.35499 -43.0931
rfingers 7.12502
rthumb 26.8876 -431.201
lclavicle 7.95139e-016 1.27222e-014
lhumerus 28.5405 -12.7085 52.8193
lradius 28.4607
lwrist -30.3219
lhand -6.56559 -45.8192
lfingers 7.12502
lthumb 19.2886 -16.7558
rfemur -6.06754 29.6293 22.4287
rtibia 15.6789
rfoot -31.1915 -40.1704
rtoes 30.9172
lfemur -3.18842 1.72692 -14.9931
ltibia 51.7347
lfoot -9.42923 8.23042
ltoes -7.59661
2861
root 19.577 15.7018 1.24445 -809.541 -88.2761 -631.271
lowerback 5.40433 -0.909734 2.12552
upperback -5.7688 -0.957883 1.9373
thorax -9.1368 -0.573059 0.995488
lowerneck -12.7316 -2.26494 -4.29072
upperneck 31.1042 -3.77857 1.88183
head 12.5277 -2.30918 0.839243
rclavicle 1.39149e-015 5.56597e-015
rhumerus 31.0746 11.1939 -41.9227
rradius 27.9088
rwrist 16.3136
rhand 1.02586 -44.0707
rfingers 7.12502
rthumb 26.5726 -432.227
lclavicle 1.39149e-015 5.56597e-015
lhumerus 28.7281 -12.902 52.4403
lradius 28.5261
lwrist -30.2383
lhand -6.73655 -45.2682
lfingers 7.12502
lthumb 19.1242 -16.1885
rfemur -5.92861 29.4296 22.6434
rtibia 16.3927
rfoot -31.7659 -39.8561
rtoes 31.1745
lfemur -4.01204 1.59833 -15.0553
ltibia 51.2314
lfoot -10.851 8.54388
ltoes -7.54076
2862
root 19.4889 15.7013 1.21481 -805.22 -88.1866 -635.619
lowerback 5.30064 -0.829406 2.43683
upperback -5.68718 -0.830832 1.84088
thorax -8.99291 -0.53356 0.697779
lowerneck -12.8042 -2.31925 -4.20411
upperneck 31.1071 -3.88975 1.93524
head 12.5476 -2.33814 0.82786
rclavicle 6.75868e-015 -2.46493e-014
rhumerus 31.2573 9.99576 -43.5472
rradius 27.1639
rwrist 17.9168
rhand 0.785021 -44.023
rfingers 7.12502
rthumb 26.3421 -432.214
lclavicle 6.75868e-015 -2.46493e-014
lhumerus 28.7604 -13.2763 51.7943
lradius 28.8463
lwrist -29.7975
lhand -7.1025 -45.4774
lfingers 7.12502
lthumb 18.7722 -16.3632
rfemur -5.79593 29.5303 22.9152
rtibia 17.1507
rfoot -32.2039 -39.9852
rtoes 31.3105
lfemur -4.79667 1.34236 -15.1616
ltibia 50.5408
lfoot -12.2713 9.01709
ltoes -5.33483
2863
root 19.4001 15.7031 1.18865 -801.482 -88.0161 -639.369
lowerback 5.39835 -0.797515 2.30026
upperback -5.7377 -0.783725 2.03892
thorax -9.10103 -0.496008 0.981586
lowerneck -12.8854 -2.34826 -4.72262
upperneck 31.239 -3.87653 2.17531
head 12.6374 -2.36322 1.00962
rclavicle 4.57205e-015 -3.89618e-014
rhumerus 31.5963 9.93147 -43.889
rradius 26.8545
rwrist 18.4288
rhand 1.78956 -42.7454
rfingers 7.12502
rthumb 27.3033 -430.788
lclavicle 4.57205e-015 -3.89618e-014
lhumerus 28.4374 -12.7138 52.3474
lradius 28.6897
lwrist -30.4084
lhand -7.33191 -45.9197
lfingers 7.12502
lthumb 18.5516 -16.7843
rfemur -5.66645 29.5178 23.0469
rtibia 17.7832
rfoot -33.0576 -39.6927
rtoes 32.848
lfemur -5.59557 0.965267 -15.434
ltibia 49.7024
lfoot -13.4536 10.0035
ltoes -6.76852
2864
root 19.3145 15.6967 1.15942 -798.39 -87.7906 -642.515
lowerback 5.33882 -0.863305 2.5888
upperback -5.62708 -0.860305 1.83319
thorax -8.95324 -0.556623 0.60773
lowerneck -12.9742 -2.26187 -4.68743
upperneck 31.1934 -3.83663 2.45825
head 12.6402 -2.30057 1.11761
rclavicle 1.43125e-014 -1.59028e-015
rhumerus 31.9724 9.89227 -44.4027
rradius 26.665
rwrist 18.4765
rhand 2.68047 -41.7285
rfingers 7.12502
rthumb 28.1552 -429.634
lclavicle 1.43125e-014 -1.59028e-015
lhumerus 28.5646 -12.5842 51.589
lradius 28.7181
lwrist -30.3882
lhand -7.02792 -45.9461
lfingers 7.12502
lthumb 18.844 -16.8389
rfemur -5.4721 29.3346 23.1364
rtibia 18.3567
rfoot -34.5918 -38.6902
rtoes 35.5403
lfemur -6.41374 0.770294 -15.685
ltibia 48.7986
lfoot -14.3054 11.0027
ltoes -11.4189
2865
root 19.2306 15.6917 1.1333 -794.976 -87.5659 -646.001
lowerback 5.64995 -0.821171 2.2504
upperback -5.69187 -0.807148 2.05581
thorax -9.19906 -0.501818 1.03473
lowerneck -12.8806 -2.25099 -4.5094
upperneck 31.1044 -3.74819 2.10217
head 12.5681 -2.28409 0.965203
rclavicle 1.98785e-016 9.54166e-015
rhumerus 31.8997 10.598 -43.4074
rradius 27.1233
rwrist 17.4927
rhand 1.03445 -44.8502
rfingers 7.12502
rthumb 26.5808 -433.005
lclavicle 1.98785e-016 9.54166e-015
lhumerus 28.5252 -12.8248 51.4203
lradius 28.7828
lwrist -30.0313
lhand -6.67094 -45.4714
lfingers 7.12502
lthumb 19.1873 -16.3979
rfemur -5.17217 29.542 23.3034
rtibia 18.8913
rfoot -35.193 -38.772
rtoes 35.6107
lfemur -7.27579 0.323059 -15.9169
ltibia 47.886
lfoot -15.4591 11.5874
ltoes -9.82621
2866
root 19.144 15.6912 1.11336 -791.446 -87.3785 -649.567
lowerback 5.69678 -0.785276 2.39301
upperback -5.66755 -0.744082 2.03333
thorax -9.20288 -0.480807 0.922767
lowerneck -12.766 -2.24501 -4.31692
upperneck 30.9324 -3.74915 2.00848
head 12.4666 -2.26985 0.898833
rclavicle -1.98785e-016 -9.54166e-015
rhumerus 31.4894 10.5869 -43.2254
rradius 27.5382
rwrist 17.2587
rhand 1.10337 -44.2875
rfingers 7.12502
rthumb 26.6468 -432.432
lclavicle -1.98785e-016 -9.54166e-015
lhumerus 28.7794 -13.208 50.9448
lradius 28.7833
lwrist -29.7152
lhand -6.72904 -45.172
lfingers 7.12502
lthumb 19.1314 -16.093
rfemur -4.89532 29.7585 23.4379
rtibia 19.3258
rfoot -35.9948 -38.7598
rtoes 36.1267
lfemur -8.18584 -0.2262 -16.1398
ltibia 46.9901
lfoot -16.544 12.1388
ltoes -9.21112
2867
root 19.0581 15.6854 1.09059 -787.282 -87.2881 -653.741
lowerback 5.62698 -0.795189 2.67328
upperback -5.59703 -0.733844 2.0268
thorax -9.08922 -0.493314 0.754346
lowerneck -12.692 -2.204 -4.43729
upperneck 30.7924 -3.69037 2.14936
head 12.3972 -2.23556 0.983959
rclavicle -2.78299e-015 3.18055e-015
rhumerus 31.6378 9.77933 -44.3669
rradius 27.1119
rwrist 18.6817
rhand 0.956604 -43.8313
rfingers 7.12502
rthumb 26.5063 -431.997
lclavicle -2.78299e-015 3.18055e-015
lhumerus 28.8401 -12.9239 50.8651
lradius 28.6963
lwrist -30.2472
lhand -7.09812 -45.4645
lfingers 7.12502
lthumb 18.7765 -16.3507
rfemur -4.63985 30.8232 23.6914
rtibia 19.7268
rfoot -40.1612 -37.1544
rtoes 42.0143
lfemur -9.11934 -0.482081 -16.1781
ltibia 46.1288
lfoot -17.3712 12.4596
ltoes -10.4346
2868
root 18.9754 15.6806 1.06595 -783.864 -87.0739 -657.219
lowerback 5.70384 -0.84702 2.78603
upperback -5.5334 -0.7893 2.01485
thorax -9.06795 -0.526525 0.685994
lowerneck -12.6564 -2.19082 -4.41938
upperneck 30.6757 -3.64891 2.10003
head 12.3391 -2.21753 0.96942
rclavicle 8.74653e-015 9.54166e-015
rhumerus 31.8406 9.55009 -44.8509
rradius 26.9133
rwrist 19.2682
rhand 0.723468 -43.733
rfingers 7.12502
rthumb 26.2831 -431.932
lclavicle 8.74653e-015 9.54166e-015
lhumerus 28.8593 -12.3956 50.9655
lradius 28.5232
lwrist -30.8671
lhand -7.07141 -45.3829
lfingers 7.12502
lthumb 18.8021 -16.2716
rfemur -4.30611 31.5612 23.9886
rtibia 20.1704
rfoot -42.5905 -36.4748
rtoes 44.5881
lfemur -10.0106 -0.993154 -16.3435
ltibia 45.2847
lfoot -18.3869 12.593
ltoes -8.45912
2869
root 18.8927 15.6767 1.04533 -781.442 -86.7897 -659.689
lowerback 5.82687 -0.866721 2.83253
upperback -5.5162 -0.808565 1.95479
thorax -9.12396 -0.540275 0.600935
lowerneck -12.7263 -2.26139 -4.30306
upperneck 30.6811 -3.75355 2.02601
head 12.356 -2.25798 0.905365
rclavicle 3.57812e-015 9.54166e-015
rhumerus 31.8947 10.0554 -44.3809
rradius 27.1304
rwrist 18.5105
rhand 0.437303 -44.0978
rfingers 7.12502
rthumb 26.0092 -432.338
lclavicle 3.57812e-015 9.54166e-015
lhumerus 28.9587 -12.1785 50.9797
lradius 28.4287
lwrist -31.1058
lhand -6.80448 -45.1013
lfingers 7.12502
lthumb 19.0589 -16.0151
rfemur -4.02609 30.1206 24.1388
rtibia 20.5903
rfoot -40.4119 -37.2246
rtoes 41.1449
lfemur -10.9248 -1.70173 -16.6055
ltibia 44.4731
lfoot -19.2181 13.0742
ltoes -9.46528
